<svg xmlns="http://www.w3.org/2000/svg" xmlns:xlink="http://www.w3.org/1999/xlink" width="512" height="512" viewBox="0 0 512 512"><defs><clipPath id="a"><rect width="144" height="182.399" fill="none"/></clipPath><clipPath id="c"><rect width="512" height="512"/></clipPath></defs><g id="b" clip-path="url(#c)"><g transform="translate(65.511 76)"><path d="M278.225,19.1v76.16H45.264V19.1H.489v98.547A22.382,22.382,0,0,0,22.91,140.029H300.58A22.382,22.382,0,0,0,323,117.652V19.1Z" transform="translate(0 193.371)" fill="#5e6072"/><path d="M76.692,204.924l-64.1-77.461s-9.754-9.209.823-9.209H49.534V5.494S48.1,0,56.373,0h50.847c5.961,0,5.828,4.627,5.828,4.627v111.3h33.342c12.834,0,3.17,9.642,3.17,9.642s-54.54,72.4-62.147,80C81.942,211.074,76.692,204.924,76.692,204.924Z" transform="translate(80.954 0)" fill="#5e6072"/></g><g transform="translate(320 74)" clip-path="url(#a)"><path d="M0,175.214v-61.2c1.081-1.571,8.881-14.4,68-111.636a4.95,4.95,0,0,1,8.459,0C135.569,99.613,143,112.443,143.886,114.014H144v61.2s-36.622-11.873-72.622-11.873S0,175.214,0,175.214Z" transform="translate(0 0)" fill="#5e6072"/><path d="M24,185.636V122.5L79.6,11.036l.047-.077L38.4,126.1v62.328A69.07,69.07,0,0,1,24,185.636Z" transform="translate(-13.2 -6.027)" fill="#ff8f00"/><path d="M0,181.447v-61.2l.023-.034h0l.008-.013c1.186-1.752,9.242-15,66.309-108.868L10.8,122.743v63.1A57.722,57.722,0,0,1,0,181.447Z" transform="translate(0 -6.272)" fill="#fec14c"/></g></g></svg>