<svg xmlns="http://www.w3.org/2000/svg" xmlns:xlink="http://www.w3.org/1999/xlink" width="512" height="512" viewBox="0 0 512 512"><defs><clipPath id="a"><rect width="144" height="182.399" fill="none"/></clipPath><clipPath id="c"><rect width="512" height="512"/></clipPath></defs><g id="b" clip-path="url(#c)"><g transform="translate(320 74)" clip-path="url(#a)"><path d="M0,175.214v-61.2c1.081-1.571,8.881-14.4,68-111.636a4.95,4.95,0,0,1,8.459,0C135.569,99.613,143,112.443,143.886,114.014H144v61.2s-36.622-11.873-72.622-11.873S0,175.214,0,175.214Z" transform="translate(0 0)" fill="#5e6072"/><path d="M24,185.636V122.5L79.6,11.036l.047-.077L38.4,126.1v62.328A69.07,69.07,0,0,1,24,185.636Z" transform="translate(-13.2 -6.027)" fill="#ff8f00"/><path d="M0,181.447v-61.2l.023-.034h0l.008-.013c1.186-1.752,9.242-15,66.309-108.868L10.8,122.743v63.1A57.722,57.722,0,0,1,0,181.447Z" transform="translate(0 -6.272)" fill="#fec14c"/></g><rect width="12.404" height="140.951" transform="translate(142.212 112.711) rotate(45)" fill="#ff8f00"/><rect width="12.404" height="140.951" transform="translate(267.377 236.748) rotate(45)" fill="#ff8f00"/><rect width="12.404" height="140.951" transform="translate(231.293 198.409) rotate(45)" fill="#8ac129"/><rect width="12.404" height="140.951" transform="translate(306.843 270.576) rotate(45)" fill="#8ac129"/><rect width="12.404" height="140.951" transform="translate(386.903 359.657) rotate(45)" fill="#ff8f00"/><path d="M166.175,0h7.989c4.412,0,10.359,1.127,10.359,5.539,0,0,12.676,27.463-26.759,72.532-24.2,24.977-74.645,46.477-108.348,78.771-13.425,13.537-21.5,34.69-21.5,47.622,0,10.992.355,25.825,18.583,48.246s54.329,41.441,54.329,41.441,35.472,14.7,56.977,40.2,29.044,61.8,29.044,61.8c0,.613,1.53,8.189,1.233,9.222-1.323,4.666-23.359,17.239-26.447,8.247s.081-17.09-4.929-28.168a118.835,118.835,0,0,0-28.778-40.233c-20.246-18.309-32.124-22-52.2-33-26.8-20.582-48.281-31.784-64.082-60.561C3.174,236.231,0,218.686,0,201.965,0,182.889,9.308,156.2,29.374,136.8c30.248-29.238,78.512-50.519,103.39-73.166,33.1-38.026,25.422-55.646,25.422-55.646A7.989,7.989,0,0,1,166.175,0Z" transform="translate(435.404 368.708) rotate(135)" fill="#5e6072"/><path d="M166.175,0h7.989c4.412,0,10.359,1.127,10.359,5.539,0,0,12.676,27.464-26.759,72.532-24.2,24.977-74.645,46.477-108.348,78.771-13.425,13.537-21.5,34.69-21.5,47.622,0,10.992.355,25.825,18.583,48.246s54.329,41.441,54.329,41.441,35.472,14.7,56.977,40.2,29.044,61.8,29.044,61.8c0,.613,1.53,8.189,1.233,9.222-1.323,4.666-23.359,17.239-26.447,8.247s.081-17.09-4.929-28.168a118.834,118.834,0,0,0-28.778-40.233c-20.246-18.309-32.124-22-52.2-33-26.8-20.582-48.281-31.784-64.082-60.561C3.174,236.231,0,218.686,0,201.965,0,182.889,9.308,156.2,29.374,136.8c30.248-29.238,78.512-50.519,103.39-73.166,33.1-38.026,25.422-55.646,25.422-55.646A7.989,7.989,0,0,1,166.175,0Z" transform="translate(7.674 207.022) rotate(-45)" fill="#ff8f00"/></g></svg>